@startuml
skinparam classAttributeIconSize 0
left to right direction

package "Sistema de Biblioteca (SB)" {

class Usuario {
    - id : String
    - sobrenome : String
    - prenome: String
    - situacaoMatricula : String
}

class RegistroEmprestimo {
    - codigoEmprestimo : String
    - dataInicio : String
    - dataPrevistaDevolucao : String
}

class Obra {
    - codigo : String
    - tituloPrincipal : String
    - autorPrincipal : String
    - numeroISBN : String
}

Usuario "1" --> "*" RegistroEmprestimo
RegistroEmprestimo "*" --> "1" Obra

}

@enduml
